
<svg id="visual" viewBox="0 0 900 350" width="900" height="350" xmlns="http://www.w3.org/2000/svg" xmlns:xlink="http://www.w3.org/1999/xlink" version="1.1"><path d="M0 313L6.8 316.3C13.7 319.7 27.3 326.3 41 325.8C54.7 325.3 68.3 317.7 82 318.8C95.7 320 109.3 330 123 333C136.7 336 150.3 332 164 326C177.7 320 191.3 312 204.8 313.2C218.3 314.3 231.7 324.7 245.2 323.2C258.7 321.7 272.3 308.3 286 301.5C299.7 294.7 313.3 294.3 327 300.7C340.7 307 354.3 320 368 322.2C381.7 324.3 395.3 315.7 409 311.7C422.7 307.7 436.3 308.3 450 305.8C463.7 303.3 477.3 297.7 491 301.3C504.7 305 518.3 318 532 318.2C545.7 318.3 559.3 305.7 573 305C586.7 304.3 600.3 315.7 614 321.8C627.7 328 641.3 329 654.8 330.7C668.3 332.3 681.7 334.7 695.2 333.3C708.7 332 722.3 327 736 320.5C749.7 314 763.3 306 777 309.2C790.7 312.3 804.3 326.7 818 332.2C831.7 337.7 845.3 334.3 859 331.5C872.7 328.7 886.3 326.3 893.2 325.2L900 324L900 0L893.2 0C886.3 0 872.7 0 859 0C845.3 0 831.7 0 818 0C804.3 0 790.7 0 777 0C763.3 0 749.7 0 736 0C722.3 0 708.7 0 695.2 0C681.7 0 668.3 0 654.8 0C641.3 0 627.7 0 614 0C600.3 0 586.7 0 573 0C559.3 0 545.7 0 532 0C518.3 0 504.7 0 491 0C477.3 0 463.7 0 450 0C436.3 0 422.7 0 409 0C395.3 0 381.7 0 368 0C354.3 0 340.7 0 327 0C313.3 0 299.7 0 286 0C272.3 0 258.7 0 245.2 0C231.7 0 218.3 0 204.8 0C191.3 0 177.7 0 164 0C150.3 0 136.7 0 123 0C109.3 0 95.7 0 82 0C68.3 0 54.7 0 41 0C27.3 0 13.7 0 6.8 0L0 0Z" fill="#FFD67F" stroke-linecap="round" stroke-linejoin="miter"></path></svg>